<svg xmlns="http://www.w3.org/2000/svg" width="599" height="599" fill="none" viewBox="0 0 599 599">
  <path fill="#FF0C0C" d="M353.41 299.2v3.295l-261.763.898v-3.294c0 .299 261.763-.899 261.763-.899z"/>
  <path fill="#FF0C0C" d="M354.907 300.698l104.825 227.321-2.995 1.497-104.825-227.32 2.995-1.498z"/>
  <path fill="#FF0C0C" d="M507.653 68.885l2.995 1.797-156.34 231.214-2.995-1.797 156.34-231.214z"/>
  <path fill="#FF0C0C" d="M354.309 300.997l8.685 206.955H359.4l-8.686-206.955h3.595z"/>
  <path fill="#FF0C0C" d="M377.669 106.622l3.295.599-26.656 194.076-3.294-.599c-.3 0 26.655-194.076 26.655-194.076z"/>
  <path fill="#FF0C0C" d="M212.645 200.066L353.41 299.5l-2.097 2.696-140.765-99.435c.3 0 2.097-2.695 2.097-2.695z"/>
  <path fill="#FF0C0C" d="M308.784 221.63l44.926 78.169-2.995 1.797-44.926-78.169 2.995-1.797z"/>
  <path fill="#FF0C0C" d="M455.539 259.067l1.198 3.295-103.627 40.133-1.198-3.295 103.627-40.133z"/>
  <path fill="#FF0C0C" d="M353.11 299.5l94.044 39.834-1.498 3.294-93.744-40.133 1.198-2.995z"/>
  <path fill="#FF0C0C" d="M351.313 300.099l2.696 2.097L263.56 425.59l-2.695-2.097 90.448-123.394z"/>
  <path fill="#FF0C0C" d="M351.613 299.5l1.797 2.995-67.687 37.437-1.797-2.995 67.687-37.437z"/>
  <path fill="#FF0C0C" d="M350.714 300.698l3.295.899-23.061 96.139-3.295-.898 23.061-96.14zM374.674 240.798l3.295 1.198-23.661 59.301-3.294-1.198 23.66-59.301zM379.766 109.018c-3.594 0-6.29-2.695-6.29-6.29 0-3.593 2.696-6.289 6.29-6.289s6.289 2.696 6.289 6.289c0 3.295-2.995 6.29-6.289 6.29zm0-9.284a2.685 2.685 0 00-2.696 2.695c0 1.498 1.198 2.695 2.995 2.695a2.684 2.684 0 002.696-2.695c-.3-1.198-1.498-2.695-2.995-2.695zM511.845 72.479c-3.594 0-6.289-2.695-6.289-6.29 0-3.593 2.695-6.289 6.289-6.289s6.29 2.696 6.29 6.29-2.696 6.289-6.29 6.289zm0-9.285a2.684 2.684 0 00-2.695 2.696 2.684 2.684 0 002.695 2.695 2.684 2.684 0 002.696-2.695c0-1.198-1.198-2.396-2.696-2.696zM460.032 265.057c-3.594 0-6.29-2.695-6.29-6.289s2.696-6.29 6.29-6.29 6.29 2.696 6.29 6.29c.299 3.594-2.696 6.289-6.29 6.289zm0-8.985a2.684 2.684 0 00-2.695 2.696 2.684 2.684 0 002.695 2.695 2.684 2.684 0 002.696-2.695c.299-1.498-.899-2.696-2.696-2.696zM451.047 348.917c-3.594 0-6.289-2.695-6.289-6.289s2.695-6.289 6.289-6.289 6.289 2.695 6.289 6.289c0 3.294-2.695 6.289-6.289 6.289zm0-9.284a2.685 2.685 0 00-2.696 2.695 2.685 2.685 0 002.696 2.696 2.684 2.684 0 002.695-2.696c.3-1.197-.898-2.695-2.695-2.695zM460.032 539.1c-3.594 0-6.29-2.696-6.29-6.29s2.696-6.289 6.29-6.289 6.29 2.695 6.29 6.289c.299 3.594-2.696 6.29-6.29 6.29zm0-8.985a2.684 2.684 0 00-2.695 2.695 2.684 2.684 0 002.695 2.696 2.685 2.685 0 002.696-2.696c.299-1.497-.899-2.695-2.696-2.695zM361.796 518.734c-3.594 0-6.29-2.695-6.29-6.289s2.696-6.29 6.29-6.29 6.29 2.696 6.29 6.29-2.995 6.289-6.29 6.289zm0-8.985a2.685 2.685 0 00-2.696 2.696 2.684 2.684 0 002.696 2.695 2.683 2.683 0 002.695-2.695 2.684 2.684 0 00-2.695-2.696zM259.666 434.275c-3.594 0-6.289-2.695-6.289-6.289 0-3.595 2.695-6.29 6.289-6.29s6.29 2.695 6.29 6.29c0 3.594-2.995 6.289-6.29 6.289zm0-8.985a2.684 2.684 0 00-2.695 2.696 2.684 2.684 0 002.695 2.695 2.684 2.684 0 002.696-2.695 2.685 2.685 0 00-2.696-2.696z"/>
  <path fill="#FF0C0C" d="M328.551 407.62c-3.594 0-6.289-2.696-6.289-6.29s2.695-6.29 6.289-6.29 6.29 2.696 6.29 6.29c0 3.295-2.696 6.29-6.29 6.29zm0-9.285c-1.497 0-2.995 1.198-2.995 2.695a2.685 2.685 0 002.696 2.696c1.497 0 2.995-1.198 2.995-2.696.299-1.497-.899-2.695-2.696-2.695zM281.23 347.121c-3.594 0-6.289-2.696-6.289-6.29s2.695-6.289 6.289-6.289c3.295 0 5.99 2.695 6.29 5.99.299 3.594-2.396 6.589-5.99 6.589h-.3zm0-9.285c-1.797 0-2.995 1.498-2.695 2.995 0 .599.299 1.498.898 1.797.599.599 1.198.599 2.097.599 1.497 0 2.695-1.497 2.695-2.995-.299-1.198-1.497-2.396-2.995-2.396zM87.154 308.186c-3.593 0-6.289-2.696-6.289-6.29s2.696-6.29 6.29-6.29 6.289 2.696 6.289 6.29-2.695 6.29-6.29 6.29zm0-8.986a2.685 2.685 0 00-2.695 2.696 2.684 2.684 0 002.695 2.695 2.684 2.684 0 002.696-2.695c.3-1.497-1.198-2.696-2.695-2.696zM207.853 205.158c-3.594 0-6.29-2.696-6.29-6.29s2.696-6.289 6.29-6.289 6.289 2.695 6.289 6.289-2.695 6.29-6.289 6.29zm0-8.985a2.684 2.684 0 00-2.696 2.695 2.685 2.685 0 002.696 2.696 2.684 2.684 0 002.695-2.696c.3-1.497-1.198-2.695-2.695-2.695zM305.19 224.925c-3.594 0-6.289-2.696-6.289-6.29s2.695-6.289 6.289-6.289 6.29 2.695 6.29 6.289-2.696 6.29-6.29 6.29zm0-8.985c-1.497 0-2.995 1.198-2.995 2.695a2.685 2.685 0 002.696 2.696c1.497 0 2.995-1.198 2.995-2.696a2.684 2.684 0 00-2.696-2.695z"/>
  <path fill="red" d="M377.969 243.493c-3.594 0-6.29-2.695-6.29-6.289s2.696-6.29 6.29-6.29 6.289 2.696 6.289 6.29-2.995 6.289-6.289 6.289zm0-8.984a2.684 2.684 0 00-2.696 2.695 2.684 2.684 0 002.696 2.695 2.684 2.684 0 002.695-2.695 2.683 2.683 0 00-2.695-2.695z"/>
</svg>
